<svg width="2429" height="1000" viewBox="0 0 2429 1000" fill="none" xmlns="http://www.w3.org/2000/svg">
<path d="M96 841V416H21V345H96V259C96 211 108 176 132 154C156 132 191 121 237 121H287V193H250C224.667 193 206.667 198.333 196 209C185.333 219 180 236.333 180 261V345H302V416H180V841H96ZM535.477 853C488.143 853 446.143 842.333 409.477 821C372.81 799 343.81 768.667 322.477 730C301.81 691.333 291.477 645.667 291.477 593C291.477 541 301.81 495.667 322.477 457C343.143 417.667 371.81 387.333 408.477 366C445.81 344 488.81 333 537.477 333C585.477 333 626.81 344 661.477 366C696.81 387.333 723.81 415.667 742.477 451C761.143 486.333 770.477 524.333 770.477 565C770.477 572.333 770.143 579.667 769.477 587C769.477 594.333 769.477 602.667 769.477 612H374.477C376.477 650 385.143 681.667 400.477 707C416.477 731.667 436.143 750.333 459.477 763C483.477 775.667 508.81 782 535.477 782C570.143 782 599.143 774 622.477 758C645.81 742 662.81 720.333 673.477 693H756.477C743.143 739 717.477 777.333 679.477 808C642.143 838 594.143 853 535.477 853ZM535.477 404C495.477 404 459.81 416.333 428.477 441C397.81 465 380.143 500.333 375.477 547H687.477C685.477 502.333 670.143 467.333 641.477 442C612.81 416.667 577.477 404 535.477 404ZM1034.81 853C987.479 853 945.479 842.333 908.813 821C872.146 799 843.146 768.667 821.813 730C801.146 691.333 790.813 645.667 790.813 593C790.813 541 801.146 495.667 821.813 457C842.479 417.667 871.146 387.333 907.813 366C945.146 344 988.146 333 1036.81 333C1084.81 333 1126.15 344 1160.81 366C1196.15 387.333 1223.15 415.667 1241.81 451C1260.48 486.333 1269.81 524.333 1269.81 565C1269.81 572.333 1269.48 579.667 1268.81 587C1268.81 594.333 1268.81 602.667 1268.81 612H873.813C875.813 650 884.479 681.667 899.813 707C915.813 731.667 935.479 750.333 958.813 763C982.813 775.667 1008.15 782 1034.81 782C1069.48 782 1098.48 774 1121.81 758C1145.15 742 1162.15 720.333 1172.81 693H1255.81C1242.48 739 1216.81 777.333 1178.81 808C1141.48 838 1093.48 853 1034.81 853ZM1034.81 404C994.813 404 959.146 416.333 927.813 441C897.146 465 879.479 500.333 874.812 547H1186.81C1184.81 502.333 1169.48 467.333 1140.81 442C1112.15 416.667 1076.81 404 1034.81 404ZM1536.15 853C1486.82 853 1443.48 841.667 1406.15 819C1369.48 796.333 1340.82 765.333 1320.15 726C1300.15 686.667 1290.15 642 1290.15 592C1290.15 542 1300.48 497.667 1321.15 459C1341.82 419.667 1370.48 389 1407.15 367C1443.82 344.333 1487.15 333 1537.15 333C1577.82 333 1613.82 341.333 1645.15 358C1676.48 374.667 1700.82 398 1718.15 428V121H1802.15V841H1726.15L1718.15 759C1702.15 783 1679.15 804.667 1649.15 824C1619.15 843.333 1581.48 853 1536.15 853ZM1545.15 780C1578.48 780 1607.82 772.333 1633.15 757C1659.15 741 1679.15 719 1693.15 691C1707.82 663 1715.15 630.333 1715.15 593C1715.15 555.667 1707.82 523 1693.15 495C1679.15 467 1659.15 445.333 1633.15 430C1607.82 414 1578.48 406 1545.15 406C1512.48 406 1483.15 414 1457.15 430C1431.82 445.333 1411.82 467 1397.15 495C1383.15 523 1376.15 555.667 1376.15 593C1376.15 630.333 1383.15 663 1397.15 691C1411.82 719 1431.82 741 1457.15 757C1483.15 772.333 1512.48 780 1545.15 780ZM1869.08 841V121H1953.08V841H1869.08ZM2020.76 841V345H2096.76L2103.76 440C2119.09 407.333 2142.42 381.333 2173.76 362C2205.09 342.667 2243.76 333 2289.76 333V421H2266.76C2237.42 421 2210.42 426.333 2185.76 437C2161.09 447 2141.42 464.333 2126.76 489C2112.09 513.667 2104.76 547.667 2104.76 591V841H2020.76Z" fill="white"/>
<circle cx="2316" cy="730" r="113" fill="#3ECF8E"/>
</svg>
